<svg width="226" height="84" xmlns="http://www.w3.org/2000/svg"><g fill="none" fill-rule="evenodd"><path d="M26.882 4.227l1.684.594c1.534.543 3.244.065 4.274-1.194l1.13-1.384c1.32-1.613 3.68-1.888 5.335-.62l1.418 1.086c1.292.99 3.065 1.063 4.434.183l1.503-.965c1.753-1.127 4.084-.66 5.266 1.058l1.012 1.47c.923 1.342 2.587 1.96 4.16 1.545l1.73-.454c2.014-.53 4.086.636 4.68 2.634l.508 1.712c.464 1.56 1.856 2.66 3.48 2.754l1.783.102c2.08.12 3.69 1.868 3.638 3.95l-.046 1.787c-.04 1.627.942 3.104 2.458 3.695l1.665.647c1.942.756 2.933 2.917 2.24 4.883l-.596 1.684c-.542 1.534-.064 3.244 1.195 4.273l1.384 1.13c1.612 1.32 1.887 3.682.62 5.336l-1.087 1.42c-.99 1.29-1.063 3.064-.183 4.433l.966 1.502c1.127 1.753.66 4.085-1.058 5.266l-1.47 1.014c-1.342.923-1.96 2.587-1.545 4.16l.454 1.728c.53 2.016-.636 4.088-2.634 4.68l-1.712.51c-1.56.464-2.66 1.855-2.753 3.48l-.102 1.783c-.12 2.08-1.868 3.69-3.95 3.638l-1.787-.045c-1.626-.04-3.104.942-3.695 2.458l-.647 1.665c-.757 1.943-2.917 2.934-4.883 2.24l-1.684-.595c-1.535-.542-3.244-.064-4.274 1.196l-1.13 1.384c-1.32 1.614-3.682 1.888-5.336.62l-1.418-1.085c-1.292-.99-3.065-1.064-4.434-.184l-1.503.966c-1.753 1.127-4.084.658-5.265-1.058l-1.013-1.472c-.923-1.34-2.587-1.958-4.16-1.544l-1.728.455c-2.017.53-4.09-.636-4.683-2.634l-.508-1.714c-.464-1.56-1.856-2.66-3.48-2.753l-1.784-.102c-2.08-.118-3.69-1.867-3.638-3.95l.045-1.786c.04-1.627-.942-3.105-2.458-3.695l-1.665-.65c-1.942-.755-2.933-2.916-2.24-4.88l.596-1.685c.542-1.534.064-3.244-1.196-4.274l-1.384-1.13c-1.613-1.318-1.888-3.68-.62-5.334l1.086-1.418c.99-1.292 1.063-3.066.183-4.434L1.1 36.8C-.03 35.05.44 32.718 2.156 31.536l1.472-1.013c1.34-.922 1.957-2.586 1.542-4.16l-.454-1.728c-.53-2.015.636-4.087 2.634-4.68l1.712-.51c1.56-.463 2.662-1.854 2.755-3.48l.1-1.783c.12-2.08 1.868-3.69 3.95-3.637l1.787.046c1.627.04 3.105-.943 3.695-2.46L22 6.467c.756-1.942 2.917-2.933 4.882-2.24" fill="#3E7FB9"/><path fill="#FFF" d="M13.497 51.46V39.4l-2.93 3.05L8 39.668l6.1-6.207H18v18M31.437 42.448c0-3.083-.84-5.016-2.937-5.016-2.098 0-2.937 1.933-2.937 5.016 0 3.082.84 5.04 2.937 5.04 2.098 0 2.937-1.958 2.937-5.04m-10.437 0c0-4.598 2.386-8.987 7.5-8.987 5.113 0 7.5 4.39 7.5 8.988s-2.387 9.013-7.5 9.013c-5.114 0-7.5-4.414-7.5-9.012M48.437 42.448c0-3.083-.84-5.016-2.937-5.016-2.098 0-2.937 1.933-2.937 5.016 0 3.082.84 5.04 2.937 5.04 2.098 0 2.937-1.958 2.937-5.04m-10.437 0c0-4.598 2.387-8.987 7.5-8.987 5.114 0 7.5 4.39 7.5 8.988s-2.386 9.013-7.5 9.013c-5.113 0-7.5-4.414-7.5-9.012M70.747 47.098c0-1.175-.698-1.646-1.558-1.646-.862 0-1.534.47-1.534 1.646 0 1.15.672 1.594 1.533 1.594.86 0 1.557-.444 1.557-1.594zm-6.344 0c0-2.456 1.855-4.415 4.786-4.415 2.928 0 4.81 1.96 4.81 4.415 0 2.43-1.882 4.363-4.81 4.363-2.932 0-4.787-1.932-4.787-4.362zm-4.06-9.222c0-1.176-.698-1.646-1.558-1.646-.834 0-1.505.47-1.505 1.646 0 1.123.67 1.593 1.505 1.593.86 0 1.56-.47 1.56-1.594zm-3.36 13.272l11.453-17.426h2.634L59.59 51.148h-2.606zM54 37.876c0-2.456 1.855-4.415 4.785-4.415 2.957 0 4.84 1.96 4.84 4.416 0 2.43-1.883 4.363-4.84 4.363-2.93 0-4.785-1.934-4.785-4.364zM18.34 30.222L17.817 29c.57-.11 1.206-.43 1.643-1.055.275-.394.304-.73.068-.878-.628-.397-1.896 2.49-3.73 1.33-.798-.506-1.064-1.596-.253-2.756.508-.725 1.178-1.212 1.95-1.418l.473 1.22c-.6.17-1.11.56-1.424 1.008-.238.34-.22.565-.014.696.584.37 1.932-2.468 3.7-1.348.956.606 1.12 1.68.27 2.895-.64.916-1.393 1.36-2.16 1.53M20.72 21.93l1.035 1.773 1.036-.9-2.07-.873zm4.085 1.743l-.797-.33-1.61 1.4.392.68-1.195 1.038L19 21.617l1.33-1.155L26 22.636l-1.195 1.038zM26.76 22.46l-2.645-3.367-1.348.864L22 18.98l3.93-2.52.766.978-1.34.86L28 21.666M29.685 20.46L27 16.06l1.315-.597L31 19.865M30.933 19.204l.314-1.336c.487.243 1.146.348 1.83.08.43-.17.645-.433.556-.697-.24-.703-2.844.98-3.54-1.078-.303-.895.125-1.968 1.397-2.466.795-.31 1.573-.326 2.266-.045l-.35 1.306c-.543-.213-1.148-.184-1.64.008-.37.146-.488.345-.41.578.222.655 2.858-.938 3.53 1.046.362 1.072-.134 2.072-1.465 2.593-1.003.393-1.818.323-2.487.014M35.825 18.46L35 13.127l3.55-.665.187 1.2-2.303.432.13.832 2.25-.422.186 1.2-2.25.42.324 2.105M42.07 13.734l-.742 1.85 1.41.02-.667-1.87zm1.303 3.703l-.263-.715-2.194-.032-.29.708L39 17.375l2.184-4.914 1.812.027L45 17.46l-1.627-.023zM45.072 14.825c.372-1.746 1.97-2.648 3.738-2.284 1.39.286 1.976 1.212 2.19 2.026l-1.405.34c-.095-.49-.507-.963-1.06-1.077-.94-.194-1.755.373-1.953 1.306-.197.924.316 1.773 1.257 1.966.55.113 1.122-.158 1.408-.568l1.15.855c-.523.644-1.444 1.287-2.833 1-1.77-.362-2.863-1.826-2.493-3.565M51.366 18.927l1.71-3.787-1.458-.58.496-1.1 4.252 1.693-.496 1.1-1.45-.58-1.71 3.788M54.433 20.485l2.785-4.34 1.215.663-2.785 4.338M61.173 22.44c.585-.71.576-1.64-.135-2.234-.712-.594-1.628-.436-2.214.274-.58.702-.57 1.644.142 2.238.712.594 1.627.424 2.207-.28m-3.48-2.903c1.09-1.32 2.84-1.42 4.16-.318 1.32 1.1 1.54 2.846.45 4.167-1.088 1.32-2.833 1.424-4.152.323-1.32-1.1-1.547-2.852-.457-4.172M63.13 28.433l1.044-3.576-2.367 1.83L61 25.62l4.09-3.16.83 1.097-.983 3.41 2.25-1.738L68 26.3l-4.09 3.16M18.25 56.017c1.476-1.018 3.206-.567 4.194.773.74 1 .637 1.986.288 2.694l-1.238-.61c.183-.378.215-.92-.108-1.355-.54-.735-1.5-.854-2.267-.326-.76.523-.963 1.444-.42 2.177.242.33.63.57.888.636l.362-.25-.745-1.008 1.05-.725 1.6 2.166-1.844 1.27c-.9-.097-1.744-.51-2.37-1.36-.988-1.34-.867-3.066.61-4.083M21.667 62.005l2.275-2.544 1.128.998-2.24 2.506c-.455.507-.472 1.146.127 1.676.592.525 1.228.433 1.68-.073l2.242-2.505 1.12.992-2.27 2.537c-.952 1.065-2.267 1.244-3.645.024-1.378-1.22-1.36-2.558-.418-3.61M29.55 65.2l-1.613 1.518 1.195.723.42-2.24zm-.846 4.427l.155-.86L27 67.64l-.62.58-1.38-.835 4.466-3.924 1.534.93-.917 6.07-1.38-.833zM35.058 68.258c.124-.378-.114-.683-.496-.806l-1.126-.364-.387 1.174 1.126.364c.38.124.755.017.882-.368zm-1.363 3.61l-.322-2.14-.73-.235-.605 1.84-1.423-.462 1.803-5.474 2.765.895c1.227.397 1.657 1.427 1.32 2.444-.312.953-1.06 1.274-1.64 1.286l.463 2.376-1.63-.53zM39.07 68.788l-.94 2.018 1.41.155-.47-2.172zm.912 4.3l-.187-.83-2.195-.243-.363.772-1.628-.18 2.708-5.34 1.81.2 1.48 5.8-1.626-.178zM46.173 72.878l-2.807-2.9.366 3.152-1.49.153-.63-5.447 1.532-.158 2.686 2.756-.348-2.997 1.5-.154.63 5.447M50.77 71.765l-1.393-3.97-1.577.458-.404-1.152 4.596-1.335.404 1.152-1.568.456 1.39 3.97M54.514 70.46L52 65.417l3.486-1.955.566 1.136-2.26 1.267.392.787 2.21-1.24.565 1.135-2.21 1.24.425.854 2.26-1.27.565 1.136M59.096 67.46L56 63.01l2.903-2.55.697 1.002-1.883 1.653.483.694 1.842-1.618.695 1-1.84 1.618.524.753 1.883-1.653.697 1M63.22 59.118c-.596-.51-1.363-.546-1.966.16l-.54.63 2.12 1.816.534-.625c.578-.678.423-1.492-.148-1.982zm-.368 4.343L59 60.16l1.382-1.62c1.038-1.214 2.51-1.464 3.707-.44 1.194 1.024 1.18 2.526.15 3.735L62.85 63.46z"/><path d="M99.316 38.74V27.856h-2.432l-3.802 3.754 1.6 1.68 1.827-1.844v7.295h2.806zm6.07.197c-3.182 0-4.667-2.758-4.667-5.63 0-2.873 1.484-5.615 4.667-5.615 3.182 0 4.667 2.742 4.667 5.614 0 2.873-1.485 5.63-4.667 5.63zm0-2.48c1.306 0 1.83-1.225 1.83-3.15 0-1.926-.524-3.134-1.83-3.134-1.305 0-1.827 1.208-1.827 3.133 0 1.926.52 3.15 1.827 3.15zm10.185 2.48c-3.182 0-4.667-2.758-4.667-5.63 0-2.873 1.485-5.615 4.668-5.615s4.668 2.742 4.668 5.614c0 2.873-1.485 5.63-4.667 5.63zm0-2.48c1.306 0 1.828-1.225 1.828-3.15 0-1.926-.522-3.134-1.827-3.134s-1.827 1.208-1.827 3.133c0 1.926.522 3.15 1.828 3.15zm8.29-3.314c-1.712 0-2.822-1.19-2.822-2.71 0-1.533 1.11-2.74 2.823-2.74 1.747 0 2.873 1.207 2.873 2.74 0 1.52-1.126 2.71-2.872 2.71zm.328 5.598h-1.404l6.952-10.885h1.42l-6.968 10.886zm5.826.197c-1.714 0-2.824-1.192-2.824-2.71 0-1.533 1.11-2.74 2.824-2.74 1.73 0 2.856 1.207 2.856 2.74 0 1.518-1.126 2.71-2.856 2.71zm-6.153-7.295c.638 0 1.127-.425 1.127-1.208 0-.816-.49-1.24-1.126-1.24-.62 0-1.092.424-1.092 1.24 0 .783.473 1.208 1.093 1.208zm6.154 5.793c.636 0 1.126-.408 1.126-1.207 0-.816-.49-1.24-1.126-1.24-.637 0-1.094.424-1.094 1.24 0 .8.457 1.207 1.094 1.207zm12.436 1.502c2.92 0 4.537-1.453 4.537-3.64 0-4.047-6.153-3.035-6.153-4.422 0-.457.36-.784 1.175-.784 1.076 0 2.267.377 3.18 1.127l1.535-2.007c-1.158-.995-2.676-1.518-4.422-1.518-2.79 0-4.34 1.632-4.34 3.46 0 4.194 6.168 3.003 6.168 4.488 0 .522-.587.898-1.55.898-1.485 0-2.693-.653-3.476-1.436l-1.485 2.105c1.092 1.044 2.626 1.73 4.83 1.73zm12.94-.196h-2.512v-.782c-.49.587-1.436.98-2.448.98-1.208 0-2.71-.817-2.71-2.596 0-1.91 1.502-2.53 2.71-2.53 1.045 0 1.975.327 2.448.914v-.946c0-.686-.587-1.143-1.6-1.143-.783 0-1.6.294-2.235.833l-.898-1.583c1.012-.865 2.367-1.224 3.574-1.224 1.892 0 3.67.7 3.67 3.15v4.928zm-3.915-1.452c.554 0 1.142-.195 1.403-.57v-.703c-.26-.36-.85-.554-1.403-.554-.67 0-1.257.294-1.257.915 0 .62.587.913 1.257.913zm8.73 1.65c.93 0 1.55-.23 1.86-.523l-.488-1.894c-.082.1-.36.197-.637.197-.44 0-.702-.342-.702-.8v-2.872h1.6v-2.187h-1.6v-2.154h-2.497v2.154h-1.304v2.187h1.305v3.574c0 1.517.866 2.317 2.466 2.317zm4.146-8.78c.8 0 1.437-.654 1.437-1.454 0-.8-.636-1.436-1.436-1.436-.8 0-1.435.636-1.435 1.436 0 .8.636 1.453 1.436 1.453zm1.258 8.583V30.86h-2.514v7.883h2.514zm4.847.197c2.268 0 3.59-1.11 3.59-2.61 0-3.233-4.586-2.335-4.586-3.25 0-.326.407-.57.995-.57.946 0 1.844.408 2.317.865l.963-1.665c-.85-.62-1.975-1.044-3.297-1.044-2.186 0-3.378 1.207-3.378 2.594 0 3.166 4.586 2.155 4.586 3.183 0 .36-.31.604-1.06.604-.93 0-2.188-.523-2.775-1.045l-1.044 1.73c.833.733 2.285 1.207 3.69 1.207zm7.93-.196h-2.512v-5.695h-1.306v-2.187h1.306v-.39c0-1.666 1.175-2.776 2.823-2.776.85 0 1.73.23 2.27.784l-.93 1.436c-.197-.212-.426-.31-.785-.31-.472 0-.864.31-.864.865v.39h1.6v2.188h-1.6v5.696zm9.81 0h-2.514v-.782c-.488.587-1.435.98-2.447.98-1.207 0-2.71-.817-2.71-2.596 0-1.91 1.503-2.53 2.71-2.53 1.045 0 1.975.327 2.448.914v-.946c0-.686-.586-1.143-1.598-1.143-.783 0-1.6.294-2.236.833l-.898-1.583c1.012-.865 2.367-1.224 3.575-1.224 1.893 0 3.672.7 3.672 3.15v4.928zm-3.917-1.452c.555 0 1.142-.195 1.403-.57v-.703c-.26-.36-.847-.554-1.402-.554-.67 0-1.257.294-1.257.915 0 .62.59.913 1.258.913zm9.53 1.65c1.698 0 2.76-.768 3.232-1.454l-1.632-1.534c-.31.44-.816.767-1.485.767-1.045 0-1.844-.734-1.844-1.926 0-1.19.798-1.908 1.843-1.908.67 0 1.175.294 1.485.75l1.632-1.517c-.473-.702-1.534-1.452-3.23-1.452-2.466 0-4.31 1.664-4.31 4.128 0 2.482 1.844 4.147 4.31 4.147zm7.36 0c.93 0 1.55-.23 1.86-.523l-.488-1.894c-.082.1-.36.197-.637.197-.44 0-.7-.342-.7-.8v-2.872h1.598v-2.187h-1.598v-2.154h-2.497v2.154H197.4v2.187h1.305v3.574c0 1.517.865 2.317 2.464 2.317zm4.146-8.78c.8 0 1.436-.654 1.436-1.454 0-.8-.636-1.436-1.436-1.436-.8 0-1.436.636-1.436 1.436 0 .8.637 1.453 1.436 1.453zm1.257 8.583V30.86h-2.512v7.883h2.513zm5.6.197c-2.678 0-4.294-1.926-4.294-4.146 0-2.218 1.616-4.127 4.293-4.127 2.708 0 4.307 1.91 4.307 4.128 0 2.22-1.6 4.147-4.308 4.147zm0-2.22c1.108 0 1.73-.865 1.73-1.926 0-1.043-.622-1.908-1.73-1.908-1.095 0-1.7.865-1.7 1.91 0 1.06.605 1.925 1.7 1.925zm13.48 2.024v-5.58c0-1.453-.817-2.497-2.612-2.497-1.322 0-2.252.603-2.726 1.158v-.962H217.8v7.883h2.512v-5.09c.294-.36.784-.768 1.534-.768.784 0 1.29.343 1.29 1.306v4.553h2.513zM97.82 56.224c-2.756 0-4.42-1.983-4.42-4.268 0-2.284 1.664-4.25 4.42-4.25 2.788 0 4.435 1.966 4.435 4.25 0 2.285-1.647 4.268-4.435 4.268zm0-2.285c1.142 0 1.78-.89 1.78-1.983 0-1.075-.638-1.965-1.78-1.965-1.126 0-1.748.89-1.748 1.965 0 1.092.622 1.983 1.748 1.983zm8.383 2.083v-5.173c.336-.454 1.226-.74 1.898-.74.27 0 .487.034.64.068v-2.487c-.976 0-2 .555-2.538 1.21v-.99h-2.587v8.113h2.587zm7.845 3.16c.27.083.874.134 1.11.134 1.545-.034 2.77-.42 3.426-2.134l3.663-9.273h-2.74l-1.848 5.14-1.83-5.14h-2.722l3.225 8.232-.185.435c-.134.336-.504.454-1.092.454-.2 0-.453-.05-.638-.152l-.37 2.3zm12.852-2.957c-2.755 0-4.418-1.983-4.418-4.268 0-2.284 1.663-4.25 4.418-4.25 2.79 0 4.436 1.966 4.436 4.25 0 2.285-1.647 4.268-4.436 4.268zm0-2.285c1.143 0 1.78-.89 1.78-1.983 0-1.075-.637-1.965-1.78-1.965-1.125 0-1.747.89-1.747 1.965 0 1.092.622 1.983 1.747 1.983zm13.86 2.083v-8.113h-2.587v5.24c-.302.388-.806.79-1.545.79-.84 0-1.344-.335-1.344-1.31v-4.72h-2.588v5.78c0 1.494.824 2.536 2.672 2.536 1.36 0 2.3-.605 2.805-1.176v.974h2.587zm4.47 0v-5.173c.335-.454 1.226-.74 1.898-.74.268 0 .487.034.638.068v-2.487c-.974 0-2 .555-2.537 1.21v-.99h-2.586v8.113h2.587zm11.154 0H153.8V50.16h-1.345v-2.25h1.344v-.405c0-1.713 1.21-2.856 2.906-2.856.873 0 1.78.236 2.335.807l-.957 1.478c-.2-.218-.437-.32-.806-.32-.487 0-.89.32-.89.89v.405h1.646v2.25h-1.647v5.864zm6.62.203c-2.504 0-4.436-1.63-4.436-4.268 0-2.352 1.78-4.25 4.318-4.25 2.402 0 4.15 1.764 4.15 4.52v.554h-5.78c.152.755.857 1.443 2.033 1.443.572 0 1.564-.252 2.017-.688l1.092 1.612c-.807.723-2.15 1.076-3.394 1.076zm1.562-5.124c-.067-.573-.487-1.396-1.68-1.396-1.126 0-1.562.807-1.663 1.395h3.343zm7.644 5.123c-2.503 0-4.435-1.63-4.435-4.268 0-2.352 1.78-4.25 4.317-4.25 2.403 0 4.15 1.764 4.15 4.52v.554h-5.78c.152.755.858 1.443 2.034 1.443.57 0 1.562-.252 2.016-.688l1.092 1.612c-.807.723-2.15 1.076-3.394 1.076zm1.562-5.124c-.067-.573-.487-1.396-1.68-1.396-1.125 0-1.562.807-1.663 1.395h3.344zm6.855 5.123c2.334 0 3.695-1.143 3.695-2.688 0-3.327-4.72-2.403-4.72-3.344 0-.335.42-.587 1.024-.587.973 0 1.897.42 2.384.89l.992-1.713c-.874-.638-2.033-1.075-3.394-1.075-2.25 0-3.478 1.243-3.478 2.67 0 3.26 4.72 2.22 4.72 3.277 0 .37-.318.622-1.09.622-.958 0-2.252-.538-2.857-1.075l-1.075 1.78c.857.755 2.352 1.243 3.797 1.243zm11.91-3.008c.32.437.99.723 1.546.723 1.024 0 1.797-.756 1.797-1.983 0-1.21-.773-1.965-1.797-1.965-.555 0-1.227.302-1.546.74v2.485zm0 2.806h-2.587V44.816h2.587v4.05c.638-.807 1.512-1.16 2.402-1.16 2.016 0 3.58 1.596 3.58 4.25 0 2.756-1.58 4.268-3.58 4.268-.907 0-1.73-.37-2.402-1.143v.94zm14.717 0h-2.587v-.805c-.504.604-1.48 1.008-2.52 1.008-1.244 0-2.79-.84-2.79-2.672 0-1.964 1.546-2.603 2.79-2.603 1.075 0 2.032.336 2.52.94v-.973c0-.706-.605-1.176-1.647-1.176-.806 0-1.646.302-2.3.857l-.925-1.63c1.04-.89 2.436-1.26 3.68-1.26 1.948 0 3.78.722 3.78 3.242v5.074zm-4.032-1.494c.57 0 1.176-.202 1.445-.588v-.723c-.27-.37-.874-.57-1.445-.57-.69 0-1.294.302-1.294.94 0 .638.606.94 1.295.94zm9.81 1.697c1.748 0 2.84-.79 3.327-1.496l-1.68-1.58c-.32.455-.84.79-1.528.79-1.076 0-1.9-.755-1.9-1.982 0-1.226.824-1.965 1.9-1.965.688 0 1.21.302 1.528.773l1.68-1.563c-.487-.722-1.58-1.495-3.326-1.495-2.537 0-4.435 1.714-4.435 4.25 0 2.554 1.9 4.268 4.436 4.268zm12.836-.202l-3.14-4.417 2.99-3.696h-3.125l-2.47 3.242v-6.335h-2.587V56.02h2.588v-1.948l.772-.924 1.78 2.873h3.193z" fill="#374958"/></g></svg>