<svg width="40" height="28" fill="none" xmlns="http://www.w3.org/2000/svg"><g  transform="translate(-1, -6)" filter="url(#a)"><rect x="1.5" y="6.5" width="39" height="27" rx="5.5" fill="#fff" stroke="#D9E0E8"/><g clip-path="url(#b)"><path d="M24.84 15c-2.27 0-4.3 1.18-4.3 3.35 0 2.49 3.6 2.66 3.6 3.91 0 .53-.6 1-1.64 1-1.46 0-2.56-.66-2.56-.66l-.47 2.2a8 8 0 0 0 2.94.55c2.48 0 4.44-1.23 4.44-3.44 0-2.63-3.62-2.8-3.62-3.96 0-.42.5-.87 1.53-.87a5.2 5.2 0 0 1 2.11.48l.46-2.11S26.3 15 24.84 15Zm-20.78.16-.06.32s.96.17 1.82.52c1.1.4 1.18.63 1.37 1.36l2.04 7.83h2.72l4.2-10.03h-2.72l-2.7 6.82-1.1-5.78c-.1-.66-.61-1.04-1.24-1.04H4.06Zm13.19 0-2.13 10.03h2.59l2.13-10.03h-2.6Zm14.47 0c-.63 0-.96.33-1.2.92l-3.8 9.1h2.72l.52-1.51h3.32l.32 1.52H36l-2.1-10.03h-2.18Zm.35 2.7.8 3.77h-2.15l1.35-3.76Z" fill="#1A1F71"/></g></g><defs><clipPath id="b"><path fill="#fff" transform="translate(4 15)" d="M0 0h32v10.35H0z"/></clipPath><filter id="a" x="0" y="0" width="42" height="42" filterUnits="userSpaceOnUse" color-interpolation-filters="sRGB"><feFlood flood-opacity="0" result="BackgroundImageFix"/><feColorMatrix in="SourceAlpha" values="0 0 0 0 0 0 0 0 0 0 0 0 0 0 0 0 0 0 127 0" result="hardAlpha"/><feOffset dy="1"/><feGaussianBlur stdDeviation=".5"/><feComposite in2="hardAlpha" operator="out"/><feColorMatrix values="0 0 0 0 0.701961 0 0 0 0 0.745098 0 0 0 0 0.8 0 0 0 0.25 0"/><feBlend in2="BackgroundImageFix" result="effect1_dropShadow_820_5557"/><feBlend in="SourceGraphic" in2="effect1_dropShadow_820_5557" result="shape"/></filter></defs></svg>