<?xml version="1.0" encoding="utf-8"?>
<!-- Generator: Adobe Illustrator 24.1.3, SVG Export Plug-In . SVG Version: 6.00 Build 0)  -->
<svg version="1.1" id="Layer_1" xmlns="http://www.w3.org/2000/svg" xmlns:xlink="http://www.w3.org/1999/xlink" x="0px" y="0px"
	 viewBox="0 0 135 40.29" style="enable-background:new 0 0 135 40.29;" xml:space="preserve">
<style type="text/css">
	.st0{fill:#A6A6A6;}
	.st1{fill:#FFFFFF;stroke:#FFFFFF;stroke-width:0.2;stroke-miterlimit:10;}
	.st2{fill:#FFFFFF;}
	.st3{fill:url(#SVGID_1_);}
	.st4{fill:url(#SVGID_2_);}
	.st5{fill:url(#SVGID_3_);}
	.st6{fill:url(#SVGID_4_);}
	.st7{opacity:0.2;enable-background:new    ;}
	.st8{opacity:0.12;enable-background:new    ;}
	.st9{opacity:0.25;fill:#FFFFFF;enable-background:new    ;}
</style>
<g id="Background">
	<g>
		<path d="M130,40H5c-2.75,0-5-2.25-5-5V5c0-2.75,2.25-5,5-5h125c2.75,0,5,2.25,5,5v30C135,37.75,132.75,40,130,40z"/>
	</g>
	<g>
		<g>
			<path class="st0" d="M130,0.8c2.32,0,4.2,1.88,4.2,4.2v30c0,2.32-1.88,4.2-4.2,4.2H5c-2.32,0-4.2-1.88-4.2-4.2V5
				c0-2.32,1.88-4.2,4.2-4.2L130,0.8 M130,0H5C2.25,0,0,2.25,0,5v30c0,2.75,2.25,5,5,5h125c2.75,0,5-2.25,5-5V5
				C135,2.25,132.75,0,130,0L130,0z"/>
		</g>
	</g>
</g>
<g id="US">
	<g>
		<g>
			<path class="st1" d="M47.02,9.92c0,0.84-0.25,1.51-0.75,2c-0.56,0.59-1.3,0.89-2.2,0.89c-0.87,0-1.6-0.3-2.21-0.9
				c-0.61-0.6-0.91-1.35-0.91-2.23c0-0.89,0.3-1.63,0.91-2.23s1.34-0.9,2.21-0.9c0.43,0,0.84,0.08,1.23,0.25s0.7,0.39,0.94,0.67
				L45.71,8c-0.4-0.47-0.94-0.71-1.64-0.71c-0.63,0-1.18,0.22-1.64,0.67c-0.46,0.44-0.69,1.02-0.69,1.73c0,0.71,0.23,1.29,0.69,1.73
				s1.01,0.67,1.64,0.67c0.67,0,1.23-0.22,1.68-0.67c0.29-0.29,0.46-0.7,0.5-1.22h-2.18V9.46h2.91C47.01,9.62,47.02,9.77,47.02,9.92
				z"/>
			<path class="st1" d="M51.63,7.41H48.9v1.9h2.46v0.72H48.9v1.9h2.73v0.74h-3.5v-6h3.5V7.41z"/>
			<path class="st1" d="M54.88,12.67h-0.77V7.41h-1.68V6.67h4.12v0.74h-1.68v5.26H54.88z"/>
			<path class="st1" d="M59.54,12.67v-6h0.77v6H59.54z"/>
			<path class="st1" d="M63.73,12.67h-0.77V7.41h-1.68V6.67h4.12v0.74h-1.68L63.73,12.67L63.73,12.67z"/>
			<path class="st1" d="M73.21,11.9c-0.59,0.61-1.32,0.91-2.2,0.91s-1.61-0.3-2.2-0.91s-0.88-1.35-0.88-2.22
				c0-0.88,0.29-1.62,0.88-2.22c0.59-0.61,1.32-0.91,2.2-0.91c0.87,0,1.6,0.3,2.2,0.91c0.59,0.6,0.89,1.34,0.89,2.21
				C74.1,10.55,73.8,11.29,73.21,11.9z M69.38,11.4c0.44,0.45,0.99,0.67,1.63,0.67s1.19-0.22,1.63-0.67
				c0.44-0.45,0.67-1.02,0.67-1.72s-0.22-1.27-0.67-1.72c-0.44-0.45-0.99-0.67-1.63-0.67s-1.19,0.22-1.63,0.67
				c-0.44,0.45-0.67,1.02-0.67,1.72C68.72,10.37,68.94,10.95,69.38,11.4z"/>
			<path class="st1" d="M75.18,12.67v-6h0.94l2.92,4.67h0.03l-0.03-1.16V6.67h0.77v6H79l-3.05-4.89h-0.03l0.03,1.16v3.74h-0.77
				V12.67z"/>
		</g>
		<path class="st2" d="M67.74,21.43c-2.35,0-4.27,1.79-4.27,4.25c0,2.45,1.92,4.25,4.27,4.25s4.27-1.8,4.27-4.25
			C72.01,23.21,70.09,21.43,67.74,21.43z M67.74,28.26c-1.29,0-2.4-1.06-2.4-2.58c0-1.53,1.11-2.58,2.4-2.58s2.4,1.05,2.4,2.58
			C70.14,27.19,69.03,28.26,67.74,28.26z M58.43,21.43c-2.35,0-4.27,1.79-4.27,4.25c0,2.45,1.92,4.25,4.27,4.25
			c2.35,0,4.27-1.8,4.27-4.25C62.7,23.21,60.78,21.43,58.43,21.43z M58.43,28.26c-1.29,0-2.4-1.06-2.4-2.58
			c0-1.53,1.11-2.58,2.4-2.58s2.4,1.05,2.4,2.58C60.83,27.19,59.72,28.26,58.43,28.26z M47.35,22.73v1.8h4.32
			c-0.13,1.01-0.47,1.76-0.98,2.27c-0.63,0.63-1.61,1.32-3.33,1.32c-2.66,0-4.74-2.14-4.74-4.8s2.08-4.8,4.74-4.8
			c1.43,0,2.48,0.56,3.25,1.29l1.27-1.27c-1.08-1.03-2.51-1.82-4.53-1.82c-3.64,0-6.7,2.96-6.7,6.61c0,3.64,3.06,6.61,6.7,6.61
			c1.97,0,3.45-0.64,4.61-1.85c1.19-1.19,1.56-2.87,1.56-4.22c0-0.42-0.03-0.81-0.1-1.13h-6.07V22.73z M92.66,24.13
			c-0.35-0.95-1.43-2.71-3.64-2.71c-2.19,0-4.01,1.72-4.01,4.25c0,2.38,1.8,4.25,4.22,4.25c1.95,0,3.08-1.19,3.54-1.88l-1.45-0.97
			c-0.48,0.71-1.14,1.18-2.09,1.18s-1.63-0.44-2.06-1.29l5.69-2.35L92.66,24.13z M86.86,25.55c-0.05-1.64,1.27-2.48,2.22-2.48
			c0.74,0,1.37,0.37,1.58,0.9L86.86,25.55z M82.23,29.67h1.87v-12.5h-1.87V29.67z M79.17,22.38h-0.06c-0.42-0.5-1.22-0.95-2.24-0.95
			c-2.13,0-4.08,1.87-4.08,4.27c0,2.38,1.95,4.24,4.08,4.24c1.01,0,1.82-0.45,2.24-0.97h0.06v0.61c0,1.63-0.87,2.5-2.27,2.5
			c-1.14,0-1.85-0.82-2.14-1.51l-1.63,0.68c0.47,1.13,1.71,2.51,3.77,2.51c2.19,0,4.04-1.29,4.04-4.43v-7.64h-1.77
			C79.17,21.69,79.17,22.38,79.17,22.38z M77.03,28.26c-1.29,0-2.37-1.08-2.37-2.56c0-1.5,1.08-2.59,2.37-2.59
			c1.27,0,2.27,1.1,2.27,2.59C79.3,27.18,78.3,28.26,77.03,28.26z M101.41,17.17h-4.47v12.5h1.87v-4.74h2.61
			c2.07,0,4.1-1.5,4.1-3.88S103.48,17.17,101.41,17.17z M101.46,23.2h-2.65v-4.29h2.65c1.4,0,2.19,1.16,2.19,2.14
			C103.65,22.02,102.85,23.2,101.46,23.2z M112.99,21.4c-1.35,0-2.75,0.6-3.33,1.91l1.66,0.69c0.35-0.69,1.01-0.92,1.7-0.92
			c0.97,0,1.95,0.58,1.96,1.61v0.13c-0.34-0.19-1.06-0.48-1.95-0.48c-1.79,0-3.6,0.98-3.6,2.81c0,1.67,1.46,2.75,3.1,2.75
			c1.25,0,1.95-0.56,2.38-1.22h0.06v0.96h1.8v-4.79C116.79,22.64,115.13,21.4,112.99,21.4z M112.77,28.25
			c-0.61,0-1.46-0.31-1.46-1.06c0-0.96,1.06-1.33,1.98-1.33c0.82,0,1.21,0.18,1.7,0.42C114.84,27.43,113.84,28.25,112.77,28.25z
			 M123.35,21.68l-2.14,5.42h-0.06l-2.22-5.42h-2.01l3.33,7.58l-1.9,4.21h1.95l5.13-11.79H123.35z M106.54,29.67h1.87v-12.5h-1.87
			V29.67z"/>
		<g>
			
				<linearGradient id="SVGID_1_" gradientUnits="userSpaceOnUse" x1="21.4027" y1="806.3823" x2="4.6203" y2="823.1647" gradientTransform="matrix(1 0 0 1 0 -798)">
				<stop  offset="0" style="stop-color:#00A0FF"/>
				<stop  offset="6.574450e-03" style="stop-color:#00A1FF"/>
				<stop  offset="0.2601" style="stop-color:#00BEFF"/>
				<stop  offset="0.5122" style="stop-color:#00D2FF"/>
				<stop  offset="0.7604" style="stop-color:#00DFFF"/>
				<stop  offset="1" style="stop-color:#00E3FF"/>
			</linearGradient>
			<path class="st3" d="M10.04,7.21C9.75,7.52,9.58,8,9.58,8.62v22.12c0,0.62,0.17,1.1,0.46,1.4l0.07,0.07L22.5,19.82v-0.15v-0.15
				L10.11,7.14L10.04,7.21z"/>
			
				<linearGradient id="SVGID_2_" gradientUnits="userSpaceOnUse" x1="33.439" y1="817.67" x2="9.2421" y2="817.67" gradientTransform="matrix(1 0 0 1 0 -798)">
				<stop  offset="0" style="stop-color:#FFE000"/>
				<stop  offset="0.4087" style="stop-color:#FFBD00"/>
				<stop  offset="0.7754" style="stop-color:#FFA500"/>
				<stop  offset="1" style="stop-color:#FF9C00"/>
			</linearGradient>
			<path class="st4" d="M26.63,23.95l-4.13-4.13v-0.15v-0.15l4.13-4.13l0.09,0.05l4.89,2.78c1.4,0.79,1.4,2.09,0,2.89l-4.89,2.78
				L26.63,23.95z"/>
			
				<linearGradient id="SVGID_3_" gradientUnits="userSpaceOnUse" x1="24.4331" y1="819.9719" x2="1.6748" y2="842.7301" gradientTransform="matrix(1 0 0 1 0 -798)">
				<stop  offset="0" style="stop-color:#FF3A44"/>
				<stop  offset="1" style="stop-color:#C31162"/>
			</linearGradient>
			<path class="st5" d="M26.73,23.9l-4.22-4.22L10.04,32.14c0.46,0.49,1.22,0.55,2.08,0.06L26.73,23.9"/>
			
				<linearGradient id="SVGID_4_" gradientUnits="userSpaceOnUse" x1="6.9013" y1="797.8511" x2="17.0638" y2="808.0137" gradientTransform="matrix(1 0 0 1 0 -798)">
				<stop  offset="0" style="stop-color:#32A071"/>
				<stop  offset="0.0685" style="stop-color:#2DA771"/>
				<stop  offset="0.4762" style="stop-color:#15CF74"/>
				<stop  offset="0.8009" style="stop-color:#06E775"/>
				<stop  offset="1" style="stop-color:#00F076"/>
			</linearGradient>
			<path class="st6" d="M26.73,15.45l-14.61-8.3c-0.86-0.49-1.62-0.43-2.08,0.06L22.5,19.68L26.73,15.45z"/>
			<g>
				<path class="st7" d="M26.63,23.81l-14.52,8.25c-0.81,0.46-1.54,0.43-2,0.01l0,0l-0.07,0.07l0,0l0.07,0.07l0,0
					c0.47,0.42,1.19,0.45,2-0.01l14.61-8.3L26.63,23.81z"/>
				<path class="st8" d="M10.04,31.99c-0.29-0.31-0.46-0.79-0.46-1.4v0.15c0,0.62,0.17,1.1,0.46,1.4l0.07-0.07L10.04,31.99z"/>
			</g>
			<path class="st8" d="M31.62,20.97l-4.99,2.83l0.09,0.09l4.89-2.78c0.7-0.4,1.05-0.92,1.05-1.44l0,0
				C32.61,20.15,32.25,20.61,31.62,20.97z"/>
			<path class="st9" d="M12.12,7.3l19.5,11.08c0.63,0.36,0.99,0.82,1.05,1.3l0,0c0-0.52-0.35-1.05-1.05-1.44L12.12,7.15
				c-1.4-0.79-2.54-0.13-2.54,1.47v0.15C9.58,7.16,10.72,6.5,12.12,7.3z"/>
		</g>
	</g>
</g>
</svg>
