<svg id="Layer_2_1_" xmlns="http://www.w3.org/2000/svg" viewBox="0 0 128 86" enable-background="new 0 0 128 86"><style></style><defs><filter id="Adobe_OpacityMaskFilter" filterUnits="userSpaceOnUse" x="0" y="0" width="128" height="86"><feColorMatrix values="1 0 0 0 0 0 1 0 0 0 0 0 1 0 0 0 0 0 1 0"/></filter></defs><mask maskUnits="userSpaceOnUse" x="0" y="0" width="128" height="86" id="SVGID_1_"><g filter="url(#Adobe_OpacityMaskFilter)"><path id="path-1_20_" d="M5 0h118c2.8 0 5 2.2 5 5v76c0 2.8-2.2 5-5 5H5c-2.8 0-5-2.2-5-5V5c0-2.8 2.2-5 5-5z" fill="#fff"/></g></mask><g mask="url(#SVGID_1_)" fill-rule="evenodd" clip-rule="evenodd"><path fill="#006b3f" d="M0 57.2h128V86H0z"/><path fill="#fcd116" d="M0 28.8h128v28.4H0z"/><path fill="#ce1126" d="M0 0h128v28.8H0z"/><path d="M49 39.6h11.5L64 28.8l3.5 10.8H79l-9.3 6.8 3.5 10.8-9.2-6.7-9.2 6.7 3.5-10.8z"/></g></svg>