<svg id="Layer_2_1_" xmlns="http://www.w3.org/2000/svg" viewBox="0 0 128 86" enable-background="new 0 0 128 86"><style>.st1{fill:#fff}</style><defs><filter id="Adobe_OpacityMaskFilter" filterUnits="userSpaceOnUse" x="0" y="0" width="128" height="86"><feColorMatrix values="1 0 0 0 0 0 1 0 0 0 0 0 1 0 0 0 0 0 1 0"/></filter></defs><mask maskUnits="userSpaceOnUse" x="0" y="0" width="128" height="86" id="SVGID_1_"><g filter="url(#Adobe_OpacityMaskFilter)"><path id="path-1_76_" class="st1" d="M5 0h118c2.8 0 5 2.2 5 5v76c0 2.8-2.2 5-5 5H5c-2.8 0-5-2.2-5-5V5c0-2.8 2.2-5 5-5z"/></g></mask><g mask="url(#SVGID_1_)"><path class="st1" d="M0 0h128v86H0z"/><path d="M76.8 43c0 7.1-5.7 12.8-12.8 12.8-7.1 0-12.8-5.7-12.8-12.8 0-7.1 5.7-12.8 12.8-12.8 7.1 0 12.8 5.7 12.8 12.8zm-13 2.3h-.2l-.4 2.2-2.1 6.5c.2.1.5.1.7.2.1-.4.4-.7.8-.6.4.1.7.4.6.8h.7l-.3-6.8.2-2.3zm-1.3 1.9l.8-2.1c-.1 0-.1 0-.2-.1l-.9 2-3.7 5.7.6.3c.1-.4.6-.5.9-.4.4.2.5.6.4.9.2.1.5.1.7.2l1.4-6.5zm.2-2.3c-.1 0-.1-.1-.2-.1l-1.4 1.7-5 4.6.5.5c.2-.3.7-.4 1-.1.3.2.4.7.1 1 .2.1.4.3.6.4l3.1-6 1.3-2zm-2.2 1l1.7-1.4c0-.1-.1-.1-.1-.2l-1.8 1.3-6 3.1c.1.2.2.4.4.6.3-.2.8-.2 1 .1.2.3.2.8-.1 1 .2.2.3.4.5.5l4.4-5zm1.4-1.9c0-.1-.1-.1-.1-.2l-2.1.8-6.6 1.4c.1.2.1.5.2.7.4-.2.8 0 .9.4.1.4 0 .8-.4.9l.3.6 5.7-3.7 2.1-.9zm-2.3-.2l2.2-.4v-.2l-2.2.2-6.9-.4v.7c.4-.1.7.2.8.6.1.4-.2.7-.6.8 0 .2.1.5.2.7l6.5-2zm2.1-1v-.2l-2.2-.4-6.5-2.1c-.1.2-.1.5-.2.7.4.1.7.4.6.8 0 .4-.4.7-.8.6v.7l6.8-.3 2.3.2zm-1.9-1.3l2.1.8c0-.1 0-.1.1-.2l-2-.9-5.7-3.7-.3.6c.4.1.5.6.4.9-.2.4-.6.5-.9.4-.1.2-.1.5-.2.7l6.5 1.4zm2.3.2c0-.1.1-.1.1-.2l-1.7-1.4-4.6-5-.5.5c.3.2.4.7.1 1-.2.3-.7.4-1 .1-.1.2-.3.4-.4.6l6 3.1 2 1.3zm-1-2.2l1.4 1.7c.1 0 .1-.1.2-.1l-1.3-1.8-3.1-6c-.2.1-.4.2-.6.4.2.3.2.8-.1 1-.3.2-.8.2-1-.1-.2.2-.4.3-.5.5l5 4.4zm1.9 1.4c.1 0 .1-.1.2-.1l-.8-2.1-1.4-6.6c-.2.1-.5.1-.7.2.2.4 0 .8-.4.9-.4.1-.8 0-.9-.4l-.6.3 3.7 5.7.9 2.1zm.2-2.3l.4 2.2h.2l-.2-2.2.3-6.8h-.7c.1.4-.2.7-.6.8-.4.1-.7-.2-.8-.6-.2 0-.5.1-.7.2l2.1 6.4zm1 2.1h.2l.4-2.2 2.1-6.5c-.2-.1-.5-.1-.7-.2-.1.4-.4.7-.8.6-.4 0-.7-.4-.6-.8h-.7l.3 6.8-.2 2.3zm1.3-1.9l-.8 2.1c.1 0 .1.1.2.1l.9-2 3.7-5.7-.6-.3c-.1.4-.6.5-.9.4-.4-.1-.5-.6-.4-.9-.2-.1-.5-.1-.7-.2l-1.4 6.5zm-.2 2.3c.1 0 .1.1.2.1l1.4-1.7 5-4.6-.5-.5c-.2.3-.7.4-1 .1-.3-.2-.4-.7-.1-1-.2-.1-.4-.3-.6-.4l-3.1 6-1.3 2zm2.2-1l-1.7 1.4s.1.1.1.2l1.8-1.3 6-3.1c-.1-.2-.2-.4-.4-.6-.3.2-.8.2-1-.1-.2-.3-.2-.8.1-1-.2-.2-.3-.4-.5-.5l-4.4 5zM66.1 42c0 .1.1.1.1.2l2.1-.8 6.6-1.4c-.1-.2-.1-.5-.2-.7-.4.2-.8 0-.9-.4-.1-.4 0-.8.4-.9l-.3-.6-5.7 3.7-2.1.9zm2.3.2l-2.2.4v.2l2.2-.2 6.8.3v-.7c-.4 0-.7-.2-.8-.6-.1-.4.2-.7.6-.8 0-.2-.1-.5-.2-.7l-6.4 2.1zm-2.1 1v.2l2.2.4 6.5 2.1c.1-.2.1-.5.2-.7-.4-.1-.7-.4-.6-.8.1-.4.4-.7.8-.6v-.7l-6.8.3-2.3-.2zm1.9 1.3l-2.1-.8c0 .1 0 .1-.1.2l2 .9 5.7 3.7.3-.6c-.4-.2-.5-.6-.4-.9.2-.4.6-.5.9-.4.1-.2.1-.5.2-.7l-6.5-1.4zm-2.3-.2c0 .1-.1.1-.1.2l1.7 1.4 4.6 5 .5-.5c-.3-.2-.4-.7-.1-1 .2-.3.7-.4 1-.1.1-.2.3-.4.4-.6l-6-3.1-2-1.3zm1 2.2l-1.4-1.7c-.1 0-.1.1-.2.1l1.3 1.8 3.1 6c.2-.1.4-.2.6-.4-.2-.3-.2-.8.1-1 .3-.2.8-.2 1 .1.2-.2.4-.3.5-.5l-5-4.4zM65 45.1c-.1 0-.1.1-.2.1l.8 2.1 1.4 6.6c.2-.1.5-.1.7-.2-.1-.4 0-.8.4-.9.4-.1.8 0 .9.4l.6-.3-3.7-5.7-.9-2.1zm-.2 2.3l-.4-2.2h-.2l.2 2.2-.4 6.9h.7c-.1-.4.2-.7.6-.8.4 0 .7.2.8.6.2 0 .5-.1.7-.2l-2-6.5z" fill="#008"/><path fill="#f93" d="M0 0h128v28.8H0z"/><path fill="#128807" d="M0 57.2h128V86H0z"/></g></svg>