<svg width="34" height="23" viewBox="0 0 34 23" fill="none" xmlns="http://www.w3.org/2000/svg" preserveAspectRatio="none">
    <g clip-path="url(#clip0_154_1142)">
        <g clip-path="url(#clip1_154_1142)">
            <path fill-rule="evenodd" clip-rule="evenodd" d="M1 8.09448H17V11.6666H1V8.09448Z" fill="#006B3F"/>
            <path fill-rule="evenodd" clip-rule="evenodd" d="M1 4.57202H17V8.09451H1V4.57202Z" fill="#FCD116"/>
            <path fill-rule="evenodd" clip-rule="evenodd" d="M1 1H17V4.57209H1V1Z" fill="#CE1126"/>
            <path fill-rule="evenodd" clip-rule="evenodd" d="M7.125 5.91156H8.5625L9 4.57202L9.4375 5.91156H10.875L9.7125 6.75497L10.15 8.09451L9 7.2635L7.85 8.09451L8.2875 6.75497L7.125 5.91156Z" fill="black"/>
        </g>
        <g clip-path="url(#clip2_154_1142)">
            <path d="M17 1H33V11.6667H17V1Z" fill="#009B3A"/>
            <path d="M31.6375 6.33331L25 10.538L18.3625 6.33331L25 2.12866L31.6375 6.33331Z" fill="#FEDF00"/>
            <path d="M22.3125 5.6512C22.25 5.87446 22.225 6.09771 22.225 6.33337C22.225 7.84655 23.4625 9.08686 25 9.08686C26.2375 9.08686 27.2875 8.28066 27.6375 7.16438C27.3375 6.89151 26.45 6.15973 25.0875 5.78763C23.8375 5.44035 22.725 5.57678 22.3125 5.6512ZM25.2 5.40314C23.9375 5.04345 22.825 5.17988 22.4625 5.22949C22.8875 4.26205 23.8625 3.59229 25 3.59229C26.525 3.59229 27.7625 4.82019 27.7625 6.34577C27.7625 6.48221 27.75 6.60624 27.7375 6.74267C27.35 6.39539 26.575 5.78763 25.2 5.40314Z" fill="#002776"/>
            <path d="M25.2 5.40299C23.9375 5.0433 22.825 5.17973 22.4625 5.22934C22.4 5.36578 22.35 5.50221 22.3125 5.65105C22.7125 5.57663 23.825 5.4402 25.0875 5.77508C26.45 6.14717 27.3375 6.87896 27.6375 7.15182C27.675 7.01539 27.7125 6.86655 27.7375 6.73012C27.35 6.39524 26.575 5.78748 25.2 5.40299Z" fill="white"/>
            <path d="M22.625 5.2667H22.675C22.6875 5.2667 22.7125 5.2791 22.725 5.29151C22.7375 5.30391 22.75 5.31631 22.75 5.34112C22.7625 5.35352 22.7625 5.37833 22.7625 5.40314V5.45275C22.7625 5.46515 22.75 5.47755 22.7375 5.48996C22.725 5.50236 22.7125 5.51476 22.7 5.51476C22.6875 5.52717 22.6625 5.52717 22.65 5.52717H22.6C22.5875 5.52717 22.575 5.51476 22.5625 5.50236C22.55 5.48996 22.5375 5.47755 22.5375 5.46515C22.525 5.45275 22.525 5.42794 22.525 5.41554V5.35352C22.525 5.32872 22.5375 5.31631 22.55 5.30391L22.5875 5.2667C22.5875 5.2791 22.6 5.2667 22.625 5.2667ZM27.6125 6.69306L27.575 6.65585C27.5625 6.64345 27.55 6.63104 27.525 6.63104H27.475C27.4625 6.63104 27.4375 6.64345 27.425 6.65585L27.3875 6.69306C27.375 6.70546 27.3625 6.73027 27.3625 6.74267C27.3625 6.75507 27.35 6.77988 27.3625 6.79228C27.3625 6.80469 27.375 6.82949 27.375 6.8419L27.4125 6.8791C27.425 6.89151 27.4375 6.90391 27.4625 6.90391H27.5125C27.525 6.90391 27.55 6.89151 27.5625 6.8791L27.6 6.8419C27.6125 6.82949 27.625 6.80469 27.625 6.79228C27.625 6.76748 27.6375 6.75507 27.625 6.74267C27.625 6.73027 27.625 6.70546 27.6125 6.69306ZM27.575 6.77988C27.575 6.79228 27.5625 6.80469 27.55 6.81709L27.525 6.8419C27.5125 6.8543 27.5 6.8543 27.5 6.8543H27.4625C27.45 6.8543 27.4375 6.8419 27.4375 6.8419L27.4125 6.81709C27.4125 6.80469 27.4 6.79228 27.4 6.79228V6.75507C27.4 6.74267 27.4125 6.73027 27.425 6.71786C27.4375 6.70546 27.4375 6.69306 27.45 6.69306C27.4625 6.68066 27.475 6.68066 27.4875 6.68066H27.525C27.5375 6.68066 27.55 6.69306 27.55 6.69306L27.575 6.71786C27.575 6.73027 27.5875 6.74267 27.5875 6.75507C27.575 6.75507 27.575 6.76748 27.575 6.77988ZM27.325 6.4698C27.3125 6.4574 27.3 6.445 27.2875 6.445C27.275 6.43259 27.2625 6.43259 27.25 6.43259H27.2125C27.2 6.43259 27.1875 6.43259 27.1875 6.445C27.175 6.445 27.175 6.4574 27.1625 6.4698C27.1625 6.48221 27.15 6.48221 27.15 6.49461V6.51941C27.15 6.53182 27.1625 6.54422 27.1625 6.54422C27.175 6.55662 27.175 6.56903 27.1875 6.58143C27.2 6.59383 27.2 6.60624 27.2125 6.60624C27.2125 6.61864 27.225 6.61864 27.225 6.63104V6.65585L27.2125 6.66825H27.2H27.1875C27.175 6.66825 27.175 6.66825 27.1625 6.65585C27.15 6.65585 27.15 6.64345 27.15 6.64345C27.15 6.63104 27.1375 6.63104 27.1375 6.61864V6.59383C27.1375 6.58143 27.1375 6.58143 27.15 6.56903C27.1375 6.55662 27.125 6.55662 27.1125 6.54422C27.1 6.55662 27.1 6.56903 27.1 6.58143V6.61864C27.1 6.63104 27.1125 6.64345 27.1125 6.65585L27.15 6.69306C27.1625 6.70546 27.175 6.70546 27.1875 6.70546H27.225C27.2375 6.70546 27.25 6.70546 27.2625 6.69306C27.275 6.69306 27.2875 6.68066 27.2875 6.66825C27.2875 6.65585 27.3 6.65585 27.3 6.64345V6.61864C27.3 6.60624 27.3 6.60624 27.2875 6.59383C27.2875 6.58143 27.275 6.58143 27.275 6.56903C27.275 6.55662 27.2625 6.55662 27.2625 6.54422C27.2625 6.53182 27.25 6.53182 27.25 6.51941C27.2375 6.50701 27.2375 6.50701 27.2375 6.49461L27.225 6.48221V6.4698V6.4574C27.225 6.445 27.2375 6.445 27.25 6.445C27.2625 6.445 27.275 6.445 27.2875 6.4574C27.3125 6.48221 27.325 6.50701 27.3125 6.53182C27.325 6.54422 27.3375 6.54422 27.35 6.55662C27.3625 6.54422 27.3625 6.53182 27.3625 6.51941V6.48221C27.3375 6.49461 27.325 6.48221 27.325 6.4698ZM27.0375 6.27135C27.025 6.25895 27.0125 6.24655 27 6.24655C26.9875 6.23414 26.975 6.23414 26.9625 6.23414H26.925C26.9125 6.23414 26.9 6.23414 26.9 6.24655C26.8875 6.24655 26.8875 6.25895 26.875 6.27135C26.875 6.28376 26.8625 6.28376 26.8625 6.29616V6.32097C26.8625 6.33337 26.875 6.34577 26.875 6.34577C26.8875 6.35817 26.8875 6.37058 26.9 6.38298L26.925 6.40779C26.9375 6.42019 26.9375 6.42019 26.9375 6.43259V6.4574L26.925 6.4698H26.9125H26.9C26.8875 6.4698 26.8875 6.4698 26.875 6.4574C26.8625 6.4574 26.8625 6.445 26.85 6.445C26.85 6.445 26.8375 6.43259 26.8375 6.42019V6.39538C26.8375 6.38298 26.8375 6.38298 26.85 6.37058C26.8375 6.35817 26.825 6.35817 26.8125 6.34577C26.8 6.35817 26.8 6.37058 26.8 6.38298V6.42019C26.8 6.43259 26.8125 6.445 26.825 6.4574L26.8625 6.49461C26.875 6.50701 26.8875 6.50701 26.9 6.50701H26.9375C26.95 6.50701 26.9625 6.50701 26.975 6.49461C26.9875 6.49461 26.9875 6.48221 27 6.4698C27 6.4574 27.0125 6.4574 27.0125 6.445V6.42019C27.0125 6.40779 27.0125 6.40779 27 6.39538C27 6.38298 26.9875 6.38298 26.9875 6.37058C26.9875 6.35817 26.975 6.35817 26.975 6.34577C26.975 6.33337 26.9625 6.33337 26.9625 6.33337L26.95 6.32097L26.9375 6.30856V6.29616V6.28376C26.9375 6.27135 26.95 6.27135 26.9625 6.27135C26.975 6.27135 26.9875 6.27135 27 6.28376C27.025 6.29616 27.0375 6.32097 27.025 6.35817C27.0375 6.37058 27.05 6.37058 27.0625 6.38298C27.075 6.37058 27.075 6.35817 27.075 6.34577V6.30856L27.0375 6.27135ZM26.7625 6.17213C26.775 6.15972 26.775 6.14732 26.7875 6.13492C26.7125 6.09771 26.675 6.0729 26.6125 6.03569C26.5625 6.13492 26.5375 6.17213 26.475 6.27135C26.55 6.30856 26.5875 6.33337 26.65 6.37058C26.6625 6.35817 26.6625 6.34577 26.675 6.33337C26.625 6.29616 26.6 6.28376 26.5375 6.25895C26.55 6.23414 26.5625 6.22174 26.575 6.19693C26.625 6.22174 26.65 6.23414 26.7 6.27135C26.7125 6.25895 26.7125 6.24655 26.725 6.23414C26.675 6.20934 26.65 6.19693 26.6 6.15972C26.6125 6.13492 26.6125 6.12252 26.625 6.11011C26.6875 6.12252 26.7125 6.13492 26.7625 6.17213ZM26.475 5.97368C26.475 5.97368 26.475 5.96128 26.475 5.97368L26.45 5.94887L26.4375 5.93647L26.425 5.92407C26.375 5.89926 26.3625 5.88686 26.3125 5.87445C26.2625 5.97368 26.2375 6.01089 26.1875 6.11011C26.2 6.12252 26.2125 6.12252 26.2375 6.13492C26.2625 6.09771 26.2625 6.0729 26.2875 6.03569L26.3375 6.0605C26.3375 6.0605 26.35 6.0605 26.35 6.0729L26.3625 6.08531V6.11011C26.3625 6.13492 26.35 6.15972 26.35 6.18453L26.4 6.20934C26.4 6.17213 26.4125 6.15972 26.4125 6.12252C26.4125 6.09771 26.4 6.0729 26.4125 6.0729C26.4125 6.0729 26.4375 6.0729 26.45 6.0605C26.4625 6.0481 26.475 6.0481 26.475 6.02329C26.475 6.02329 26.475 6.01089 26.4875 6.01089V5.99848V5.98608C26.475 5.98608 26.475 5.97368 26.475 5.97368ZM26.425 6.01089L26.4 6.02329H26.3875C26.3875 6.02329 26.375 6.02329 26.3625 6.01089C26.3375 5.99848 26.325 5.99848 26.3 5.98608C26.3125 5.96128 26.325 5.94887 26.3375 5.92407C26.3625 5.93647 26.375 5.94887 26.4 5.96128C26.4125 5.97368 26.425 5.97368 26.425 5.98608V6.01089ZM26.125 5.78763C26.1125 5.77523 26.1 5.77523 26.0875 5.76283C26.075 5.75042 26.05 5.75042 26.0375 5.75042C26.025 5.75042 26 5.75042 25.9875 5.76283C25.975 5.77523 25.9625 5.77523 25.95 5.78763C25.9375 5.80003 25.925 5.81244 25.9125 5.83724C25.9 5.86205 25.9 5.87445 25.9 5.88686C25.9 5.89926 25.9 5.92407 25.9125 5.93647C25.9125 5.94887 25.925 5.96128 25.9375 5.97368C25.95 5.98608 25.9625 5.99848 25.9875 5.99848C26 6.01089 26.0125 6.01089 26.025 6.01089H26.0625V6.03569C26.075 6.03569 26.0875 6.0481 26.1 6.0481L26.1625 5.92407C26.125 5.89926 26.1 5.89926 26.05 5.87445C26.0375 5.88686 26.0375 5.89926 26.025 5.91166C26.05 5.92407 26.0625 5.92407 26.0875 5.93647C26.0875 5.94887 26.075 5.94887 26.075 5.96128C26.0625 5.96128 26.05 5.97368 26.0375 5.97368C26.025 5.97368 26.0125 5.97368 26 5.96128C25.9875 5.96128 25.975 5.94887 25.975 5.94887C25.9625 5.93647 25.9625 5.93647 25.9625 5.92407V5.88686C25.9625 5.87445 25.9625 5.86205 25.975 5.84965C25.975 5.83724 25.9875 5.82484 26 5.81244L26.025 5.78763C26.0375 5.78763 26.05 5.77523 26.05 5.77523C26.0625 5.77523 26.075 5.77523 26.0875 5.78763C26.1 5.78763 26.1 5.80004 26.1125 5.80004C26.125 5.80004 26.125 5.81244 26.125 5.81244V5.86205L26.175 5.88686C26.175 5.87445 26.1875 5.86205 26.175 5.84965C26.175 5.83724 26.175 5.82484 26.1625 5.81244C26.15 5.81244 26.1375 5.80003 26.125 5.78763ZM25.8125 5.6636C25.8 5.6512 25.7875 5.63879 25.7625 5.63879C25.75 5.62639 25.725 5.62639 25.7125 5.62639C25.7 5.62639 25.675 5.62639 25.6625 5.63879C25.65 5.6512 25.6375 5.6512 25.625 5.676C25.6125 5.68841 25.6 5.70081 25.6 5.72562C25.5875 5.75042 25.5875 5.76283 25.5875 5.77523C25.5875 5.78763 25.5875 5.81244 25.6 5.82484C25.6125 5.83724 25.6125 5.84965 25.625 5.86205C25.6375 5.87445 25.65 5.88686 25.675 5.88686C25.6875 5.89926 25.7125 5.89926 25.725 5.89926C25.7375 5.89926 25.7625 5.89926 25.775 5.88686C25.7875 5.87445 25.8 5.87445 25.8125 5.86205C25.825 5.84965 25.8375 5.83724 25.8375 5.81244C25.85 5.78763 25.85 5.77523 25.85 5.76283C25.85 5.75042 25.85 5.72562 25.8375 5.71321C25.8375 5.68841 25.825 5.676 25.8125 5.6636ZM25.7875 5.80004C25.7875 5.81244 25.775 5.82484 25.7625 5.83724L25.7375 5.86205C25.725 5.86205 25.7125 5.87445 25.7125 5.87445H25.675C25.6625 5.87445 25.65 5.86205 25.65 5.86205C25.6375 5.84965 25.6375 5.84965 25.6375 5.83724V5.80004C25.6375 5.78763 25.6375 5.77523 25.65 5.76283C25.65 5.75042 25.6625 5.73802 25.675 5.72562L25.7 5.70081C25.7125 5.70081 25.725 5.68841 25.725 5.68841H25.7625C25.775 5.68841 25.7875 5.70081 25.7875 5.70081C25.8 5.71321 25.8 5.71321 25.8 5.72562V5.76283C25.8 5.76283 25.7875 5.78763 25.7875 5.80004ZM25.5 5.56438L25.475 5.53957C25.475 5.53957 25.4625 5.53957 25.4625 5.52717C25.4625 5.51476 25.45 5.52717 25.4375 5.51476C25.3875 5.50236 25.3625 5.48996 25.3125 5.47755C25.2875 5.57678 25.2625 5.62639 25.2375 5.72562C25.2625 5.72562 25.2625 5.73802 25.2875 5.73802C25.3 5.70081 25.3 5.676 25.3125 5.63879C25.3375 5.63879 25.3375 5.6512 25.3625 5.6512C25.3625 5.6512 25.375 5.6512 25.375 5.6636L25.3875 5.676C25.3875 5.676 25.3875 5.68841 25.4 5.68841V5.77523C25.425 5.78763 25.425 5.78763 25.45 5.78763V5.70081C25.45 5.676 25.4375 5.6512 25.4375 5.6512C25.4375 5.6512 25.4625 5.63879 25.475 5.63879C25.4875 5.62639 25.5 5.61399 25.5 5.60159V5.58918V5.57678V5.56438C25.5 5.57678 25.5 5.57678 25.5 5.56438ZM25.4625 5.61399C25.4625 5.61399 25.4625 5.62639 25.4625 5.61399C25.45 5.62639 25.4375 5.62639 25.4375 5.63879H25.4C25.375 5.62639 25.3625 5.62639 25.3375 5.61399C25.35 5.58918 25.35 5.57678 25.3625 5.55197C25.3875 5.56438 25.4 5.56438 25.4375 5.57678C25.45 5.57678 25.4625 5.58918 25.4625 5.58918V5.61399ZM25.175 5.46515C25.175 5.46515 25.1625 5.45275 25.15 5.45275C25.1375 5.45275 25.1375 5.44034 25.125 5.44034C25.1125 5.44034 25.1125 5.44035 25.1 5.42794C25.05 5.41554 25.0375 5.41554 24.9875 5.40314C24.9625 5.50236 24.95 5.55197 24.925 5.6636C24.95 5.6636 24.95 5.676 24.975 5.676C24.9875 5.63879 24.9875 5.61399 25 5.57678C25.025 5.57678 25.0375 5.58918 25.0625 5.58918C25.1 5.60159 25.125 5.60159 25.15 5.58918C25.175 5.57678 25.1875 5.56438 25.2 5.53957V5.51476V5.48996L25.175 5.46515ZM25.1375 5.52717C25.1375 5.52717 25.1375 5.53957 25.1375 5.52717L25.1125 5.55197H25.075C25.05 5.55197 25.0375 5.53957 25.0125 5.53957C25.025 5.51476 25.025 5.50236 25.0375 5.46515C25.0625 5.46515 25.075 5.47755 25.1 5.47755H25.125C25.1375 5.47755 25.1375 5.47755 25.1375 5.48996L25.15 5.50236C25.1375 5.50236 25.1375 5.51476 25.1375 5.52717ZM24.6125 5.60159C24.5375 5.58918 24.5 5.57678 24.425 5.57678C24.4375 5.47755 24.45 5.44035 24.4625 5.34112C24.5375 5.35352 24.575 5.35352 24.65 5.37833C24.65 5.39073 24.65 5.40314 24.6375 5.41554C24.5875 5.40314 24.55 5.40314 24.5 5.39073C24.5 5.41554 24.5 5.42794 24.4875 5.44034C24.5375 5.45275 24.5625 5.45275 24.6125 5.46515C24.6125 5.47755 24.6125 5.48996 24.6 5.50236C24.55 5.48996 24.525 5.48996 24.475 5.47755C24.475 5.50236 24.475 5.51476 24.4625 5.53957C24.525 5.55197 24.55 5.55197 24.6 5.56438C24.6125 5.57678 24.6125 5.57678 24.6125 5.60159ZM24.1125 5.52717H24.0625C24.0625 5.46515 24.075 5.42794 24.075 5.36593C24.05 5.42794 24.0375 5.46515 24 5.52717H23.9625C23.95 5.46515 23.9375 5.42794 23.9125 5.35352C23.9125 5.41554 23.9 5.45275 23.9 5.51476H23.85C23.8625 5.41554 23.8625 5.36593 23.8625 5.2543H23.925C23.95 5.32872 23.95 5.36593 23.975 5.45275C24 5.37833 24.025 5.34112 24.05 5.2667C24.075 5.2667 24.0875 5.2667 24.1125 5.2791C24.125 5.36593 24.125 5.42794 24.1125 5.52717ZM23.75 5.50236C23.675 5.50236 23.625 5.50236 23.55 5.48996V5.22949C23.6375 5.22949 23.675 5.22949 23.75 5.2419V5.29151H23.6V5.35352H23.7375V5.40314H23.6V5.46515H23.75V5.50236ZM23.425 5.36593C23.425 5.45275 23.375 5.48996 23.2875 5.48996H23.2V5.22949H23.2875C23.375 5.22949 23.425 5.2791 23.425 5.36593ZM23.375 5.36593V5.32872C23.375 5.31631 23.3625 5.30391 23.3625 5.30391C23.35 5.29151 23.35 5.29151 23.3375 5.29151H23.2625V5.46515H23.3C23.3125 5.46515 23.325 5.46515 23.3375 5.45275C23.35 5.45275 23.3625 5.44034 23.3625 5.44034C23.375 5.42794 23.375 5.42794 23.375 5.41554V5.36593ZM23.1 5.50236H23.05C23.0375 5.47755 23.0375 5.46515 23.025 5.44034C23.025 5.44034 23.025 5.42794 23.0125 5.42794L23 5.41554H22.9875H22.925V5.51476H22.875C22.875 5.42794 22.8625 5.36593 22.8625 5.2543C22.9125 5.2543 22.9375 5.2543 22.9875 5.2419H23.05C23.05 5.2419 23.0625 5.2419 23.0625 5.2543L23.075 5.2667L23.0875 5.2791V5.30391C23.0875 5.31631 23.0875 5.34112 23.075 5.35352C23.0625 5.36593 23.0375 5.37833 23.0375 5.37833C23.0375 5.37833 23.0625 5.40314 23.0625 5.41554C23.075 5.45275 23.0875 5.47755 23.1 5.50236ZM22.9125 5.36593H23C23.0125 5.36593 23.0125 5.36593 23.0125 5.35352L23.025 5.34112V5.32872C23.025 5.31631 23.025 5.30391 23.0125 5.30391C23 5.30391 22.9875 5.29151 22.975 5.29151H22.9C22.9 5.32872 22.9 5.34112 22.9125 5.36593ZM22.6375 5.50236C22.65 5.50236 22.6625 5.50236 22.6625 5.48996C22.675 5.48996 22.675 5.47755 22.6875 5.46515C22.6875 5.45275 22.7 5.45275 22.7 5.44034V5.40314C22.7 5.39073 22.7 5.37833 22.6875 5.36593C22.6875 5.35352 22.675 5.34112 22.6625 5.34112C22.65 5.32872 22.65 5.32872 22.6375 5.32872H22.6C22.5875 5.32872 22.575 5.32872 22.575 5.34112C22.5625 5.34112 22.5625 5.35352 22.55 5.36593C22.55 5.37833 22.5375 5.39073 22.5375 5.40314V5.44034C22.5375 5.45275 22.5375 5.46515 22.55 5.47755C22.55 5.48996 22.5625 5.48996 22.575 5.50236C22.5875 5.51476 22.5875 5.51476 22.6 5.51476C22.625 5.50236 22.6375 5.50236 22.6375 5.50236Z" fill="#009B3A"/>
            <path d="M22.9875 6.87915L23.0125 6.96597H23.1L23.025 7.01558L23.05 7.1024L22.975 7.05279L22.9 7.1024L22.925 7.01558L22.875 6.96597H22.9625L22.9875 6.87915ZM25 8.44194L25.0125 8.46674H25.0375L25.0125 8.47915L25.025 8.50395H25L24.975 8.51635L24.9875 8.49155L24.9625 8.47915H24.9875L25 8.44194ZM25.6125 7.79697L25.625 7.84659H25.675L25.625 7.8838L25.6375 7.93341L25.5875 7.8962L25.5375 7.93341L25.55 7.8838L25.5 7.84659H25.55L25.6125 7.79697ZM26.0625 7.87139L26.075 7.92101H26.125L26.075 7.95821L26.0875 8.00783L26.0375 7.97062L25.9875 8.00783L26 7.95821L25.95 7.92101H26L26.0625 7.87139ZM26.375 7.77217L26.3875 7.82178H26.4375L26.3875 7.85899L26.4 7.9086L26.375 7.87139L26.325 7.9086L26.3375 7.85899L26.3 7.82178H26.35L26.375 7.77217ZM27.325 7.25124L27.3375 7.30085H27.3875L27.35 7.32566L27.3625 7.37527L27.3125 7.33806L27.2625 7.37527L27.275 7.32566L27.25 7.30085H27.3L27.325 7.25124ZM26.375 8.3179L26.3875 8.36752H26.4375L26.3875 8.40473L26.4 8.45434L26.375 8.42953L26.325 8.46674L26.3375 8.41713L26.2875 8.37992H26.3375L26.375 8.3179ZM26.6625 7.82178L26.675 7.87139H26.725L26.675 7.9086L26.6875 7.95821L26.6375 7.92101L26.5875 7.95821L26.6 7.9086L26.55 7.87139H26.6L26.6625 7.82178ZM25.75 6.12256L25.7625 6.17217H25.8125L25.775 6.20938L25.7875 6.25899L25.75 6.22178L25.7 6.25899L25.7125 6.20938L25.6625 6.17217H25.7125L25.75 6.12256ZM24.725 6.94116L24.7375 6.99077H24.7875L24.75 7.02798L24.7625 7.07759L24.7125 7.04039L24.675 7.07759L24.6875 7.02798L24.6375 6.99077H24.6875L24.725 6.94116ZM22.65 7.16442L22.6625 7.21403H22.7125L22.6625 7.25124L22.675 7.30085L22.625 7.26364L22.575 7.30085L22.5875 7.25124L22.5375 7.21403H22.625L22.65 7.16442ZM27.05 7.44969L27.075 7.5117H27.15L27.0875 7.54891L27.1125 7.61093L27.05 7.57372L27 7.62333L27.025 7.56132L26.9625 7.52411H27.0375L27.05 7.44969ZM26.8875 7.67294L26.9125 7.73496H26.9875L26.925 7.77217L26.95 7.83418L26.8875 7.79697L26.825 7.83418L26.85 7.77217L26.7875 7.73496H26.8625L26.8875 7.67294ZM25.825 8.08225L25.85 8.14426H25.925L25.8625 8.19387L25.8875 8.25589L25.825 8.21868L25.7625 8.25589L25.7875 8.19387L25.725 8.15666H25.8L25.825 8.08225ZM26.3875 8.02023L26.4125 8.08225H26.4875L26.425 8.11946L26.45 8.18147L26.3875 8.14426L26.325 8.19387L26.35 8.13186L26.2875 8.09465H26.3625L26.3875 8.02023ZM23.475 7.44969L23.5 7.5117H23.575L23.5125 7.54891L23.5375 7.61093L23.475 7.57372L23.4125 7.61093L23.4375 7.54891L23.375 7.5117H23.45L23.475 7.44969ZM25.3125 6.92876L25.3375 6.99077H25.4125L25.35 7.02798L25.375 7.09L25.3125 7.05279L25.25 7.09L25.275 7.02798L25.2125 6.99077H25.2875L25.3125 6.92876ZM25 6.6807L25.025 6.74271H25.1L25.0375 6.77992L25.0625 6.84194L25 6.81713L24.9375 6.85434L24.9625 6.79232L24.9 6.75511H24.975L25 6.6807ZM23.95 6.34581L23.975 6.40783H24.05L23.9875 6.45744L24.0125 6.51946L23.95 6.48225L23.8875 6.51946L23.9125 6.45744L23.85 6.42023H23.925L23.95 6.34581ZM23.5625 7.17682L23.5875 7.23883H23.6625L23.6 7.27604L23.625 7.33806L23.5625 7.30085L23.5 7.35046L23.525 7.28845L23.4625 7.25124H23.5375L23.5625 7.17682ZM24.8625 7.16442L24.875 7.20163H24.9125L24.875 7.21403L24.8875 7.25124L24.8625 7.22643L24.8375 7.25124L24.85 7.21403L24.8125 7.20163H24.85L24.8625 7.16442ZM23.25 6.77992L23.2625 6.81713H23.3L23.275 6.82953L23.2875 6.86674L23.25 6.84194L23.225 6.86674L23.2375 6.82953L23.2125 6.80473H23.25V6.77992ZM25.8625 5.36597L25.8875 5.45279H25.975L25.9 5.5024L25.925 5.58922L25.85 5.53961L25.775 5.58922L25.8 5.5024L25.75 5.45279H25.8375L25.8625 5.36597ZM26.9375 7.17682L26.9625 7.26364H27.05L26.975 7.31325L27 7.40008L26.925 7.35046L26.85 7.40008L26.875 7.31325L26.8 7.26364H26.8875L26.9375 7.17682ZM22.7375 5.72566L22.7625 5.81248H22.85L22.775 5.86209L22.8 5.94891L22.725 5.8993L22.65 5.94891L22.675 5.86209L22.625 5.80008H22.7125L22.7375 5.72566ZM25 7.44969L25.025 7.53651H25.1125L25.0375 7.58612L25.0625 7.67294L25 7.61093L24.925 7.66054L24.95 7.57372L24.875 7.52411H24.9625L25 7.44969ZM23.8875 7.67294L23.9125 7.75977H24L23.925 7.80938L23.95 7.8962L23.875 7.84659L23.8 7.8962L23.825 7.80938L23.75 7.75977H23.8375L23.8875 7.67294Z" fill="white"/>
        </g>
        <g clip-path="url(#clip3_154_1142)">
            <path d="M17 11.6667H33V22.3334H17V11.6667Z" fill="#ED1C24"/>
            <path d="M17 13.4775H33V20.5349H17V13.4775Z" fill="white"/>
            <path d="M17 15.2388H33V18.7613H17V15.2388Z" fill="#241D4F"/>
        </g>
        <g clip-path="url(#clip4_154_1142)">
            <path fill-rule="evenodd" clip-rule="evenodd" d="M1 22.3334H17V11.6667H1V22.3334Z" fill="#DA251D"/>
            <path fill-rule="evenodd" clip-rule="evenodd" d="M8.99998 13.825L9.71861 16.0188H12.0435L10.1625 17.3747L10.881 19.569L8.99998 18.2129L7.11898 19.569L7.83748 17.3747L5.95648 16.0188H8.28161L8.99998 13.825Z" fill="#FFFF00"/>
        </g>
    </g>
    <defs>
        <clipPath id="clip0_154_1142">
            <rect x="1" y="1" width="32" height="21" rx="1.33333" fill="white"/>
        </clipPath>
        <clipPath id="clip1_154_1142">
            <rect width="16" height="10.6667" fill="white" transform="translate(1 1)"/>
        </clipPath>
        <clipPath id="clip2_154_1142">
            <rect width="16" height="10.6667" fill="white" transform="translate(17 1)"/>
        </clipPath>
        <clipPath id="clip3_154_1142">
            <rect width="16" height="10.6667" fill="white" transform="translate(17 11.6667)"/>
        </clipPath>
        <clipPath id="clip4_154_1142">
            <rect width="16" height="10.6667" fill="white" transform="translate(1 11.6667)"/>
        </clipPath>
    </defs>
</svg>
