<svg id="Layer_2_1_" xmlns="http://www.w3.org/2000/svg" viewBox="0 0 128 86" enable-background="new 0 0 128 86"><style>.st1{fill:#fff}.st1507{fill:#01411c}</style><defs><filter id="Adobe_OpacityMaskFilter" filterUnits="userSpaceOnUse" x="0" y="0" width="128" height="86"><feColorMatrix values="1 0 0 0 0 0 1 0 0 0 0 0 1 0 0 0 0 0 1 0"/></filter></defs><mask maskUnits="userSpaceOnUse" x="0" y="0" width="128" height="86" id="SVGID_1_"><g filter="url(#Adobe_OpacityMaskFilter)"><path id="path-1_54_" class="st1" d="M5 0h118c2.8 0 5 2.2 5 5v76c0 2.8-2.2 5-5 5H5c-2.8 0-5-2.2-5-5V5c0-2.8 2.2-5 5-5z"/></g></mask><g mask="url(#SVGID_1_)"><path class="st1" d="M0 0h128v86H0z"/><path class="st1507" d="M32 0h96v86H32z"/><circle class="st1" cx="80" cy="43" r="25.6"/><circle class="st1507" cx="86.5" cy="37.2" r="23.5"/><path class="st1" d="M89.3 23.8L100.1 36l-15.8-3.5L99.1 26l-8.2 14z"/></g></svg>