<svg id="Layer_2_1_" xmlns="http://www.w3.org/2000/svg" viewBox="0 0 128 86" enable-background="new 0 0 128 86"><style>.st1{fill:#fff}</style><defs><filter id="Adobe_OpacityMaskFilter" filterUnits="userSpaceOnUse" x="0" y="0" width="128" height="86"><feColorMatrix values="1 0 0 0 0 0 1 0 0 0 0 0 1 0 0 0 0 0 1 0"/></filter></defs><mask maskUnits="userSpaceOnUse" x="0" y="0" width="128" height="86" id="SVGID_1_"><g filter="url(#Adobe_OpacityMaskFilter)"><path id="path-1_82_" class="st1" d="M5 0h118c2.8 0 5 2.2 5 5v76c0 2.8-2.2 5-5 5H5c-2.8 0-5-2.2-5-5V5c0-2.8 2.2-5 5-5z"/></g></mask><g mask="url(#SVGID_1_)"><path fill="#ce1126" d="M0 43h128v43H0z"/><path fill="#0038a8" d="M0 0h128v43H74.3z"/><path class="st1" d="M74.3 43L0 86V0z"/><path d="M10 77.5l-3.3-1.9-2.8 2.6.8-3.7-3.3-1.9 3.8-.4.8-3.8 1.5 3.5 3.8-.4L8.5 74l1.5 3.5zm0-69.9L6.7 9.5 3.9 7l.8 3.7-3.3 1.9 3.8.4.8 3.7 1.5-3.5 3.8.4-2.9-2.5L10 7.6zm45.6 38.5l2.3-3.1-2.3-3.1 3.6 1.2 2.2-3.1v3.8L65 43l-3.6 1.2V48l-2.2-3.1-3.6 1.2zM25.6 34c.2 0 .4 0 .6.1l1.2-6.4 1 1.3-1.4 5.3c.9.2 1.7.6 2.5 1.1l2.8-4.6 1.6-.2-3.9 5.2c.2.1.3.3.5.4l4.5-5.5 2.6-.1V33l-5.9 4.6c.1.2.3.3.4.5l5.4-3.6-.2 1.6-4.8 2.7c.4.7.7 1.4.9 2.2l5.2-1.4 1.3 1-6.3 1.1c0 .2.1.4.1.6l7.1-.9 2 1.7-1.8 1.6-7.4-.8c0 .2 0 .4-.1.6l6.4 1.2-1.3 1-5.3-1.5c-.2.8-.5 1.6-.9 2.3l4.7 2.6.2 1.6-5.3-3.5c-.1.2-.2.3-.4.5l5.7 4.3.2 2.6-2.4.1-4.8-5.8c-.2.1-.3.3-.5.4l3.8 5.3-1.6-.2-2.8-4.8c-.7.4-1.5.8-2.4 1l1.4 5.2-1 1.3-1.2-6.3c-.2 0-.4.1-.6.1l.9 7.1-1.7 2-1.6-1.6.8-7.4c-.2 0-.4 0-.6-.1L22 58.3 21 57l1.4-5.3c-.9-.2-1.7-.6-2.4-1l-2.7 4.7-1.6.2 3.7-5.3c-.2-.1-.3-.3-.5-.4l-4.4 5.6-2.6.2-.1-2.4 5.8-4.7c-.1-.2-.3-.3-.4-.5l-5.4 3.7.2-1.6 4.8-2.7c-.4-.7-.7-1.5-.9-2.3l-5.2 1.4-1.3-1 6.3-1.2c0-.2-.1-.4-.1-.6l-7.1.9-2-1.7 1.6-1.7 7.4.8c0-.2 0-.4.1-.6l-6.4-1.1 1.3-1 5.3 1.4c.2-.8.5-1.6 1-2.4l-4.7-2.7-.1-1.5 5.3 3.6c.1-.2.3-.3.4-.5L12 33l-.2-2.6 2.4-.1 4.7 5.8c.2-.1.3-.3.5-.4l-3.8-5.3 1.6.2 2.8 4.8c.7-.4 1.6-.8 2.4-1L21.1 29l1-1.3 1.1 6.3c.2 0 .4-.1.6-.1l-.9-6.9 1.7-2 1.7 1.6-.7 7.4z" fill="#fcd116"/></g></svg>